<svg xmlns="http://www.w3.org/2000/svg" width="100" height="112" fill="none" viewBox="0 0 100 112">
  <path fill="#6A24FF"
    d="M7.885 111.479c-3.652 0-6.356-1.812-7.388-4.795l2.23-1.283c.753 2.37 2.51 3.541 5.214 3.541 2.676 0 4.126-1.199 4.126-3.011 0-.92-.362-1.617-1.06-2.091-.696-.474-1.895-.948-3.54-1.478l-1.868-.613a29.066 29.066 0 0 1-1.617-.725c-.641-.335-1.115-.669-1.422-1.004-.641-.697-1.227-1.84-1.227-3.262 0-1.7.586-3.039 1.785-4.014 1.199-1.004 2.648-1.506 4.35-1.506 3.094 0 5.463 1.7 6.607 4.266L11.9 96.758c-.836-2.007-2.314-3.01-4.433-3.01-2.119 0-3.54 1.114-3.54 2.899 0 .864.306 1.505.92 1.951.613.446 1.672.92 3.178 1.394l1.143.363c.223.083.557.195 1.031.39.976.363 1.2.502 1.952.92.78.418 1.031.725 1.505 1.283.697.697.976 1.7.976 2.927 0 1.701-.613 3.067-1.868 4.098-1.254 1.004-2.871 1.506-4.879 1.506ZM19.587 91.6h14.08v2.454h-5.771v17.062H25.33V94.054h-5.744V91.6Zm35.025 19.516h-2.76l-1.59-4.377H41.48l-1.589 4.377h-2.76L44.408 91.6h2.927l7.277 19.516Zm-8.755-16.42-3.484 9.618h6.997l-3.512-9.619Zm23.703 16.783c-2.955 0-5.408-.976-7.332-2.928-1.924-1.951-2.871-4.349-2.871-7.193 0-2.843.947-5.241 2.871-7.193 1.924-1.951 4.377-2.927 7.333-2.927 3.568 0 6.747 1.84 8.42 4.74l-2.259 1.31c-1.115-2.147-3.485-3.54-6.161-3.54-2.259 0-4.099.724-5.52 2.174-1.422 1.45-2.12 3.262-2.12 5.436 0 2.147.697 3.959 2.12 5.409 1.421 1.45 3.261 2.175 5.52 2.175 2.676 0 5.046-1.394 6.161-3.513l2.258 1.282c-.808 1.45-1.98 2.621-3.485 3.485-1.505.865-3.15 1.283-4.934 1.283Zm20.836-10.399 8.894 10.036h-3.18l-8.42-9.367v9.367H85.1V91.6h2.593v8.811l8.14-8.81h3.179l-8.615 9.479Z"></path>
  <path fill="#000" fill-rule="evenodd"
    d="M18.003 74.265v6.189h9.061v2.453H15.411V63.392h11.514v2.453h-8.922v5.994h8.225v2.426h-8.225Zm17.35-10.873h7.08c1.813 0 3.29.613 4.49 1.812 1.198 1.199 1.812 2.676 1.812 4.46 0 1.757-.614 3.262-1.812 4.461-1.2 1.2-2.677 1.813-4.49 1.813h-4.488v6.97h-2.593V63.39Zm2.592 10.12h4.489c1.087 0 1.98-.362 2.676-1.087.697-.753 1.06-1.673 1.06-2.76 0-2.23-1.59-3.848-3.736-3.848h-4.489v7.695Zm18.592 7.472V65.072h-2.949v-1.829h8.81v1.828H59.13v15.913h3.268v1.829H59.13v.094h-2.593v-.094h-2.949v-1.829h2.949Zm21.11 2.286c-2.956 0-5.41-.976-7.333-2.927-1.924-1.952-2.872-4.35-2.872-7.194 0-2.843.948-5.241 2.872-7.193 1.924-1.951 4.377-2.927 7.332-2.927 3.57 0 6.747 1.84 8.42 4.74l-2.258 1.31c-1.115-2.147-3.485-3.54-6.162-3.54-2.258 0-4.098.724-5.52 2.174-1.422 1.45-2.119 3.262-2.119 5.437 0 2.146.697 3.958 2.12 5.408 1.421 1.45 3.261 2.175 5.52 2.175 2.676 0 5.046-1.394 6.16-3.513l2.26 1.282c-.81 1.45-1.98 2.621-3.486 3.485-1.505.865-3.15 1.283-4.935 1.283Z"
    clip-rule="evenodd"></path>
  <path fill="#6A24FF"
    d="m46.177 13.174-1.806 6.197-6.185 1.806L25.5.5l20.677 12.674Zm6.646 0 1.806 6.197 6.186 1.806L73.5.5 52.823 13.174ZM54.63 29.63l-1.806 6.197L73.5 48.5 60.815 27.823l-6.186 1.806Zm-8.452 6.197-1.806-6.197-6.185-1.806L25.5 48.5l20.677-12.674Z"
    fill-rule="evenodd" clip-rule="evenodd"></path>
</svg>